<svg xmlns="http://www.w3.org/2000/svg" width="48" height="48" viewBox="0 0 48 48" fill="none"><mask id="mask0_5804_30582" style="mask-type:alpha" maskUnits="userSpaceOnUse" x="0" y="0" width="48" height="48"><rect width="48" height="48" fill="#D9D9D9"></rect></mask><g mask="url(#mask0_5804_30582)"><path d="M22.9917 18.3615C21.653 19.689 19.5111 19.689 18.1724 18.3615L8.50402 8.80393C7.16533 7.47649 7.16533 5.35257 8.50402 4.02513C9.84272 2.69768 11.9846 2.69768 13.3233 4.02513L22.9619 13.5827C24.3304 14.8807 24.3304 17.0341 22.9917 18.3615Z" fill="url(#paint0_linear_5804_30582)"></path><path d="M40.2461 3.99558C38.9074 2.66814 36.7655 2.66814 35.4268 3.99558L25.7882 13.5532C24.4495 14.8806 24.4495 17.0046 25.7882 18.332C27.1269 19.6594 29.2688 19.6594 30.6075 18.332L40.2461 8.77439C41.5848 7.47644 41.5848 5.32303 40.2461 3.99558Z" fill="url(#paint1_linear_5804_30582)"></path><path d="M22.9917 21.105C21.653 19.7775 19.5111 19.7775 18.1724 21.105L8.53381 30.6626C7.19511 31.99 7.19511 34.1139 8.53381 35.4414C9.8725 36.7688 12.0144 36.7688 13.3531 35.4414L22.9917 25.8838C24.3304 24.5858 24.3304 22.4324 22.9917 21.105Z" fill="url(#paint2_linear_5804_30582)"></path><path d="M40.2461 35.4709C38.9074 36.7984 36.7655 36.7984 35.4268 35.4709L25.7882 25.9133C24.4495 24.5859 24.4495 22.4619 25.7882 21.1345C27.1269 19.8071 29.2688 19.8071 30.6075 21.1345L40.2461 30.6921C41.5848 32.0196 41.5848 34.1435 40.2461 35.4709Z" fill="url(#paint3_linear_5804_30582)"></path><path d="M40.5736 40.2542L41.1384 39.6941C41.287 39.5467 41.287 39.3109 41.1384 39.1635C40.9898 39.0161 40.7519 39.0161 40.6033 39.1635L40.0385 39.7236L39.4737 39.1635C39.3251 39.0161 39.0873 39.0161 38.9386 39.1635C38.79 39.3109 38.79 39.5467 38.9386 39.6941L39.5034 40.2542L38.9386 40.8142C38.79 40.9616 38.79 41.1974 38.9386 41.3448C39.0873 41.4922 39.3251 41.4922 39.4737 41.3448L40.0385 40.7847L40.6033 41.3448C40.7519 41.4922 40.9898 41.4922 41.1384 41.3448C41.287 41.1974 41.287 40.9616 41.1384 40.8142L40.5736 40.2542Z" fill="white"></path><path d="M28.7127 41.4922C28.9208 41.4922 29.0992 41.3154 29.0992 41.109C29.0992 40.9027 28.9208 40.7258 28.7127 40.7258H25.7995C25.5914 40.7258 25.4131 40.9027 25.4131 41.109V44.5873C25.4131 44.7936 25.5914 44.9705 25.7995 44.9705H28.7127C28.9208 44.9705 29.0992 44.7936 29.0992 44.5873C29.0992 44.3809 28.9208 44.2041 28.7127 44.2041H26.186V43.2314H28.1777C28.3857 43.2314 28.5641 43.0545 28.5641 42.8482C28.5641 42.6418 28.3857 42.465 28.1777 42.465H26.186V41.4922H28.7127V41.4922Z" fill="white"></path><path d="M37.6307 40.7258C37.4226 40.7258 37.2443 40.9027 37.2443 41.109V42.465H35.1039V41.109C35.1039 40.9027 34.9256 40.7258 34.7175 40.7258C34.5094 40.7258 34.3311 40.9027 34.3311 41.109V44.5873C34.3311 44.7936 34.5094 44.9705 34.7175 44.9705C34.9256 44.9705 35.1039 44.7936 35.1039 44.5873V43.2314H37.2443V44.5873C37.2443 44.7936 37.4226 44.9705 37.6307 44.9705C37.8388 44.9705 38.0172 44.7936 38.0172 44.5873V41.109C38.0172 40.9027 37.8388 40.7258 37.6307 40.7258Z" fill="white"></path><path d="M24.2835 40.7258H22.8269H21.3703C21.1622 40.7258 20.9839 40.9027 20.9839 41.109C20.9839 41.3154 21.1622 41.4922 21.3703 41.4922H22.4405V44.5873C22.4405 44.7936 22.6188 44.9705 22.8269 44.9705C23.035 44.9705 23.2134 44.7936 23.2134 44.5873V41.4922H24.2835C24.4916 41.4922 24.67 41.3154 24.67 41.109C24.6403 40.9027 24.4916 40.7258 24.2835 40.7258Z" fill="white"></path><path d="M31.8936 41.4923C32.2206 41.4923 32.5179 41.5807 32.7854 41.7871C32.9638 41.905 33.2016 41.8755 33.3205 41.7281C33.4394 41.5512 33.4097 41.3154 33.261 41.1975C32.8746 40.9028 32.399 40.7554 31.8936 40.7554C30.6748 40.7554 29.6938 41.6986 29.6938 42.8777C29.6938 44.0568 30.6748 45 31.8936 45C32.399 45 32.8746 44.8526 33.261 44.5579C33.4394 44.44 33.4691 44.1747 33.3205 44.0273C33.2016 43.8504 32.934 43.821 32.7854 43.9683C32.5179 44.1747 32.2206 44.2631 31.8936 44.2631C31.091 44.2631 30.4667 43.6441 30.4667 42.9072C30.4667 42.1113 31.1207 41.4923 31.8936 41.4923Z" fill="white"></path><path d="M9.95536 42.8775C9.777 42.7891 9.50946 42.7301 9.21219 42.6417C8.94465 42.5827 8.73657 42.5238 8.58793 42.4648C8.4393 42.4059 8.29067 42.3469 8.20149 42.229C8.11231 42.1406 8.05286 41.9932 8.05286 41.8163C8.05286 41.5805 8.14204 41.4037 8.3204 41.2563C8.49876 41.1089 8.79602 41.0499 9.15274 41.0499C9.36083 41.0499 9.53918 41.0794 9.74727 41.1384C9.8959 41.1679 10.0148 41.2268 10.1337 41.2858C10.2229 41.3447 10.3418 41.2858 10.4013 41.1973C10.431 41.1089 10.4013 41.0205 10.3121 40.9615C10.1634 40.8731 9.98508 40.8141 9.777 40.7552C9.53919 40.6962 9.3311 40.6667 9.09329 40.6667C8.76629 40.6667 8.49876 40.7257 8.26094 40.8141C8.02313 40.932 7.84477 41.0499 7.75559 41.2268C7.63668 41.4037 7.57723 41.5805 7.57723 41.8163C7.57723 42.0816 7.63668 42.288 7.78532 42.4354C7.93395 42.5827 8.08258 42.7006 8.26094 42.7596C8.4393 42.848 8.70684 42.907 9.03383 42.9954C9.30137 43.0544 9.50946 43.1133 9.65809 43.1723C9.80672 43.2312 9.92563 43.2902 10.0445 43.4081C10.1337 43.4965 10.1932 43.6439 10.1932 43.8208C10.1932 44.0271 10.104 44.2334 9.8959 44.3513C9.71754 44.4987 9.42028 44.5577 9.03383 44.5577C8.76629 44.5577 8.49876 44.4987 8.26094 44.4103C8.08258 44.3513 7.96368 44.2629 7.81504 44.1745C7.72586 44.1155 7.57723 44.145 7.51778 44.2334C7.48805 44.3219 7.48805 44.4103 7.57723 44.4693C7.72586 44.5872 7.90422 44.6756 8.14204 44.764C8.4393 44.8525 8.73657 44.9114 9.03383 44.9114C9.39055 44.9114 9.65809 44.8525 9.8959 44.764C10.1337 44.6756 10.3121 44.5282 10.431 44.3513C10.5499 44.1745 10.6093 43.9976 10.6093 43.7618C10.6093 43.4965 10.5499 43.2902 10.4013 43.1428C10.3121 43.0838 10.1337 42.9659 9.95536 42.8775Z" fill="white"></path><path d="M14.5632 44.2042C14.2659 44.44 13.8795 44.5873 13.4633 44.5873C13.1363 44.5873 12.8391 44.4989 12.5418 44.3515C12.2743 44.2042 12.0662 43.9978 11.8878 43.7325C11.7392 43.4672 11.65 43.1725 11.65 42.8482C11.65 42.524 11.7392 42.2292 11.8878 41.9639C12.0364 41.6986 12.2445 41.4923 12.5418 41.3449C12.8093 41.1975 13.1066 41.1091 13.4633 41.1091C13.9092 41.1091 14.2659 41.227 14.5632 41.4923C14.6524 41.5512 14.7713 41.5512 14.8307 41.4923C14.9199 41.4039 14.9199 41.2565 14.801 41.1975C14.6524 41.0796 14.474 40.9617 14.2957 40.9028C14.0281 40.7848 13.7309 40.7554 13.4336 40.7554C13.0174 40.7554 12.631 40.8438 12.304 41.0207C11.977 41.1975 11.7095 41.4628 11.5014 41.7871C11.323 42.1113 11.2041 42.465 11.2041 42.8777C11.2041 43.2904 11.2933 43.6441 11.5014 43.9683C11.6797 44.2926 11.9473 44.5579 12.304 44.7347C12.631 44.9116 13.0174 45 13.4336 45C13.7606 45 14.0281 44.9411 14.2957 44.8526C14.5038 44.7642 14.6524 44.6758 14.801 44.5579C14.8902 44.4694 14.8902 44.3515 14.8307 44.2631C14.7713 44.1452 14.6524 44.1452 14.5632 44.2042Z" fill="white"></path><path d="M18.4869 42.7892C18.6949 42.7008 18.8436 42.5829 18.9625 42.406C19.0814 42.2291 19.1408 42.0523 19.1408 41.8165C19.1408 41.4627 19.0219 41.1975 18.7544 41.0206C18.4869 40.8437 18.1301 40.7258 17.6248 40.7258H16.1087C15.9304 40.7258 15.7817 40.8732 15.7817 41.0501V44.6462C15.7817 44.8231 15.9304 44.9705 16.1087 44.9705H17.7437C18.2788 44.9705 18.6652 44.8821 18.9625 44.6757C19.23 44.4694 19.3787 44.2041 19.3787 43.8209C19.3787 43.5261 19.2895 43.2903 19.1408 43.1134C18.9922 42.9661 18.7544 42.8482 18.4869 42.7892ZM16.2276 41.2564C16.2276 41.168 16.3168 41.0796 16.406 41.0796H17.5951C17.9518 41.0796 18.2193 41.1385 18.3977 41.2859C18.576 41.4038 18.6949 41.6101 18.6949 41.8754C18.6949 42.1407 18.6058 42.3176 18.3977 42.465C18.2193 42.5829 17.9518 42.6713 17.5951 42.6713H16.406C16.3168 42.6713 16.2276 42.5829 16.2276 42.4944V41.2564ZM18.6058 44.4104C18.3977 44.5283 18.1301 44.6168 17.7437 44.6168H16.406C16.3168 44.6168 16.2276 44.5283 16.2276 44.4399V43.1724C16.2276 43.084 16.3168 42.9955 16.406 42.9955H17.7437C18.5166 42.9955 18.903 43.2608 18.903 43.7914C18.903 44.0862 18.8138 44.2925 18.6058 44.4104Z" fill="white"></path></g><defs><linearGradient id="paint0_linear_5804_30582" x1="8.21126" y1="3.70645" x2="22.2411" y2="17.8552" gradientUnits="userSpaceOnUse"><stop offset="0.00130208" stop-color="#008BFF"></stop><stop offset="1" stop-color="#16C8F7"></stop></linearGradient><linearGradient id="paint1_linear_5804_30582" x1="25.7101" y1="18.3248" x2="40.0178" y2="4.08329" gradientUnits="userSpaceOnUse"><stop stop-color="#F9BD38"></stop><stop offset="1" stop-color="#F97E2E"></stop></linearGradient><linearGradient id="paint2_linear_5804_30582" x1="8.38203" y1="35.6012" x2="22.8049" y2="21.0561" gradientUnits="userSpaceOnUse"><stop offset="0.00130208" stop-color="#8347EE"></stop><stop offset="1" stop-color="#9373F9"></stop></linearGradient><linearGradient id="paint3_linear_5804_30582" x1="26.1756" y1="21.5197" x2="39.1524" y2="34.6065" gradientUnits="userSpaceOnUse"><stop stop-color="#FF6D5E"></stop><stop offset="1" stop-color="#FA3B51"></stop></linearGradient></defs></svg>